<svg width="120" height="120" viewBox="0 0 120 120" fill="none" xmlns="http://www.w3.org/2000/svg">
<path fill-rule="evenodd" clip-rule="evenodd" d="M59.9999 14.13C57.6532 14.13 55.3294 14.5922 53.1613 15.4903C50.9932 16.3883 49.0233 17.7046 47.3639 19.364C45.7045 21.0234 44.3882 22.9934 43.4902 25.1615C42.5921 27.3295 42.1299 29.6533 42.1299 32V53.09H40.1299V32C40.1299 29.3906 40.6438 26.8068 41.6424 24.3961C42.641 21.9853 44.1046 19.7949 45.9497 17.9498C47.7948 16.1047 49.9852 14.6411 52.396 13.6425C54.8067 12.644 57.3905 12.13 59.9999 12.13C62.6092 12.13 65.1931 12.644 67.6038 13.6425C70.0145 14.6411 72.205 16.1047 74.0501 17.9498C75.8952 19.7949 77.3588 21.9853 78.3574 24.3961C79.3559 26.8068 79.8699 29.3906 79.8699 32V53.09H77.8699V32C77.8699 29.6533 77.4077 27.3295 76.5096 25.1615C75.6116 22.9934 74.2953 21.0234 72.6359 19.364C70.9765 17.7046 69.0065 16.3883 66.8384 15.4903C64.6703 14.5922 62.3466 14.13 59.9999 14.13Z" fill="#24201F"/>
<path fill-rule="evenodd" clip-rule="evenodd" d="M55.25 4.59998H64.75V13.79H62.75V6.59998H57.25V13.79H55.25V4.59998Z" fill="#24201F"/>
<path fill-rule="evenodd" clip-rule="evenodd" d="M49.5601 53.47V35.97H51.5601V53.47H49.5601Z" fill="#24201F"/>
<path fill-rule="evenodd" clip-rule="evenodd" d="M59 53.47V35.97H61V53.47H59Z" fill="#24201F"/>
<path fill-rule="evenodd" clip-rule="evenodd" d="M68.4399 53.47V35.97H70.4399V53.47H68.4399Z" fill="#24201F"/>
<path fill-rule="evenodd" clip-rule="evenodd" d="M59 5.33V0H61V5.33H59Z" fill="#24201F"/>
<path fill-rule="evenodd" clip-rule="evenodd" d="M78.77 37.4301H41.23V35.4301H78.77V37.4301Z" fill="#24201F"/>
<path fill-rule="evenodd" clip-rule="evenodd" d="M29.4099 71.91H90.5999V109H29.4099V71.91ZM31.4099 73.91V107H88.5999V73.91H31.4099Z" fill="#24201F"/>
<path fill-rule="evenodd" clip-rule="evenodd" d="M60.0001 82.66C57.8279 82.66 55.7448 83.5229 54.2089 85.0588C52.6729 86.5948 51.8101 88.6779 51.8101 90.85V107.92H49.8101V90.85C49.8101 88.1475 50.8836 85.5556 52.7946 83.6446C54.7056 81.7336 57.2975 80.66 60.0001 80.66C62.7026 80.66 65.2945 81.7336 67.2055 83.6446C69.1165 85.5556 70.1901 88.1475 70.1901 90.85V107.92H68.1901V90.85C68.1901 88.6779 67.3272 86.5948 65.7913 85.0588C64.2553 83.5229 62.1722 82.66 60.0001 82.66Z" fill="#24201F"/>
<path fill-rule="evenodd" clip-rule="evenodd" d="M7.12012 77.83H30.6301V79.83H9.12012V107H30.4401V109H7.12012V77.83Z" fill="#24201F"/>
<path fill-rule="evenodd" clip-rule="evenodd" d="M110.88 79.83H89.3701V77.83H112.88V109H89.5601V107H110.88V79.83Z" fill="#24201F"/>
<path fill-rule="evenodd" clip-rule="evenodd" d="M34.21 52.47H85.79V71.94H83.79V54.47H36.21V71.94H34.21V52.47Z" fill="#24201F"/>
<path fill-rule="evenodd" clip-rule="evenodd" d="M60 59.1664L77.3 67.2432V72.91H75.3V68.5167L60 61.3736L44.7 68.5167V72.91H42.7V67.2432L60 59.1664Z" fill="#24201F"/>
</svg>
