<svg xmlns="http://www.w3.org/2000/svg" width="24" height="54" fill="none"><path fill="#fff" fill-rule="evenodd" d="M2.85 27.274a9.317 9.317 0 012.11-1.626l5.336 6.027-5.158 5.826-4.8-5.422c.096-.423.214-.839.354-1.248a9.477 9.477 0 012.158-3.557zM0 35.178v7.62c0 .166.004.33.01.494l3.587-4.051L0 35.178zm5.138 5.803l-4.66 5.263c.084.293.18.583.288.868a10.208 10.208 0 002.26 3.578c.659.678 1.421 1.261 2.288 1.75l4.985-5.63-5.161-5.83zm6.701 7.569l-4.298 4.854c1.273.398 2.7.596 4.284.596 1.638 0 3.1-.17 4.385-.513l-4.37-4.937zm6.676 4.06l-5.135-5.8 5.158-5.826 4.95 5.59a12.5 12.5 0 01-.18.57A9.477 9.477 0 0121.15 50.7c-.724.753-1.602 1.389-2.635 1.908zm-6.676-7.54l-5.16-5.83 5.158-5.825 5.16 5.83-5.158 5.825zm1.538-13.395l5.161 5.83 5.015-5.665a11.79 11.79 0 00-.319-.978 10.214 10.214 0 00-2.26-3.578 10.01 10.01 0 00-2.203-1.7l-5.394 6.091zm6.702 7.57l3.899 4.403c.015-.266.022-.534.022-.804v-7.652c0-.123-.002-.247-.005-.37l-3.916 4.422zM7.175 24.67l4.662 5.265 4.722-5.333c-1.298-.418-2.76-.627-4.384-.627-1.905 0-3.572.231-5 .695z" clip-rule="evenodd"/><path stroke="#fff" stroke-width="2" d="M5.648 2.526l15.53 15.728M18.353 2.526L2.823 18.254M12.375 0v19.014"/></svg>