<svg xmlns="http://www.w3.org/2000/svg" aria-labelledby="title" viewBox="0 0 170 20"><path d="M170 .466h-3.686l-4.682 12.17L156.896.45h-3.329l-4.36 11.257L144.817.466h-4.669l7.595 19.04h2.115l4.938-12.89 5.068 12.89h2.689L170 .465zm-29.641 9.31c0-.949-.126-1.849-.379-2.7a9.16 9.16 0 00-1.07-2.354 9.18 9.18 0 00-1.677-1.942 10.417 10.417 0 00-2.181-1.47 11.56 11.56 0 00-2.594-.931 12.844 12.844 0 00-2.926-.326c-1.02 0-1.995.109-2.926.326-.931.217-1.795.526-2.594.924-.798.4-1.525.89-2.181 1.47a9.312 9.312 0 00-1.676 1.949 9.128 9.128 0 00-1.07 2.36 9.559 9.559 0 00-.38 2.72c0 .976.127 1.9.38 2.774.252.873.61 1.682 1.07 2.427a9.294 9.294 0 001.676 2.009 10.41 10.41 0 002.181 1.516c.799.417 1.663.738 2.594.964.931.227 1.906.34 2.926.34 1.02 0 1.995-.11 2.926-.326a11.144 11.144 0 002.594-.945 10.378 10.378 0 002.181-1.503 9.17 9.17 0 001.676-2.002c.461-.744.818-1.56 1.071-2.447.253-.886.379-1.83.379-2.833zm-5.16.061c0 .96-.123 1.846-.366 2.658-.244.813-.606 1.515-1.084 2.107a4.989 4.989 0 01-1.776 1.386c-.705.333-1.519.5-2.44.5-.932 0-1.752-.167-2.462-.5a4.91 4.91 0 01-1.775-1.386c-.475-.592-.834-1.294-1.077-2.107a9.204 9.204 0 01-.366-2.658c0-.945.122-1.812.366-2.6.243-.788.602-1.465 1.077-2.032a4.83 4.83 0 011.775-1.324c.71-.315 1.53-.473 2.461-.473.922 0 1.736.158 2.441.473a4.907 4.907 0 011.776 1.324c.478.567.84 1.244 1.084 2.032.243.788.365 1.655.365 2.6zm-31.26 9.668h14.42v-3.353h-9.787V.466h-4.642v18.94h.01v.1zm-6.696-.1h4.749L93.12.054h-2.53l-9.245 19.353h3.688l2.068-4.302h8.174l1.968 4.302zm-3.479-7.655h-5.042l2.563-5.405 2.48 5.405zm-15.471 6.605c.603-.275 1-.572 1.612-.891V9.555h-.01v-.446h-7.69v3.132h3.487v3.288c-.434.31-.913.543-1.436.698a5.82 5.82 0 01-1.663.233c-.984 0-2.197-.114-3.062-.447a6.346 6.346 0 01-2.254-1.463c-.638-.642-1.144-1.436-1.516-2.38-.215-.535-.383-1.583-.383-2.421 0-.717.126-1.3.316-1.886.35-.966.831-1.784 1.443-2.453a6.08 6.08 0 012.182-1.53c.842-.35 2.043-.578 3.028-.578a5.3 5.3 0 011.815.306c.563.204 1.09.486 1.583.845.412.3.627.478 1.084.871l2.009-2.437a11.103 11.103 0 00-2.035-1.47c-.759-.43-1.58-.774-2.468-1.031A9.936 9.936 0 0071.555 0c-1.09 0-2.123.111-3.099.333a11.85 11.85 0 00-2.706.957c-.83.417-1.36.925-2.03 1.523a9.188 9.188 0 00-1.703 2.029 9.695 9.695 0 00-1.077 2.473 10.44 10.44 0 00-.38 2.847c0 1.436.28 2.74.839 3.91a8.825 8.825 0 002.334 3.006c.997.834 1.966 1.479 3.34 1.935 1.375.457 2.878.685 4.51.685 1.019 0 1.934-.055 2.746-.166a15.976 15.976 0 002.254-.465c.692-.2 1.107-.437 1.71-.712zm-20.75 1.15h.452V.474h-.452V.466H54.42v12.05L43.62.466 40.516.41v.016L40.188.42v19.032l3.491.054V6.494l11.645 13.011h2.219zM36.178 15.41a7.726 7.726 0 00.499-2.773V.466H33.3v10.641c0 .737-.113 1.426-.339 2.068a5.057 5.057 0 01-.971 1.683 4.606 4.606 0 01-1.53 1.137c-.598.28-1.106.366-1.85.366-.746 0-1.133-.086-1.736-.366a4.586 4.586 0 01-1.536-1.137 5.045 5.045 0 01-.97-1.683 6.186 6.186 0 01-.34-2.068V.466h-4.656v12.13c0 .984.184 1.915.552 2.793a6.541 6.541 0 001.63 2.308c.718.66 1.607 1.181 2.667 1.562 1.06.382 2.285.572 3.677.572 1.552 0 2.884-.19 3.997-.572 1.113-.38 2.022-.9 2.727-1.556a6.031 6.031 0 001.556-2.294zm-20.21.694a4.563 4.563 0 00.512-2.131c0-.554-.096-1.076-.286-1.566a4.619 4.619 0 00-.798-1.335 5.654 5.654 0 00-1.21-1.055 6.438 6.438 0 00-1.537-.729c.54-.318.998-.635 1.37-.953.373-.318.67-.65.891-.994.222-.345.381-.71.479-1.097.097-.386.146-.81.146-1.273a3.88 3.88 0 00-.545-2.03c-.364-.607-.871-1.13-1.523-1.565-.652-.436-1.432-.772-2.341-1.008-.91-.236-1.908-.354-3-.354H0v19.393h9.324c1.073 0 2.05-.141 2.933-.423.882-.28 1.636-.667 2.26-1.157a5.253 5.253 0 001.45-1.723zM10.827 5.667c0 .348-.071.666-.213.956-.142.29-.346.54-.612.751a2.956 2.956 0 01-.977.496 4.43 4.43 0 01-1.31.179H4.642V3.102h1.742c.772 0 1.437.063 1.995.19.559.125 1.02.3 1.384.525.363.225.632.496.804.813.173.317.26.663.26 1.037zm.758 8.15c0 .368-.087.707-.26 1.016-.172.309-.438.575-.797.797-.36.222-.814.398-1.364.526-.55.129-1.201.193-1.955.193H4.642v-5.45h2.407c.834 0 1.54.075 2.122.224.58.15 1.048.354 1.403.615.354.26.612.568.772.922.159.354.239.74.239 1.157z" fill="#242021" fill-rule="evenodd"/></svg>